<svg width="100%" viewBox="0 0 680 598" xmlns="http://www.w3.org/2000/svg">
<defs>
  <marker id="ar" viewBox="0 0 10 10" refX="8" refY="5" markerWidth="6" markerHeight="6" orient="auto-start-reverse">
    <path d="M2 1L8 5L2 9" fill="none" stroke="#888" stroke-width="1.5" stroke-linecap="round" stroke-linejoin="round"/>
  </marker>
  <style>text{font-family:system-ui,-apple-system,sans-serif}.th{font-size:13px;font-weight:500}.ts{font-size:11px}.arr{stroke:#999;stroke-width:1.5;fill:none;marker-end:url(#ar)}</style>
</defs>
<rect x="240" y="30" width="200" height="44" rx="8" fill="#F1EFE8" stroke="#5F5E5A" stroke-width="0.5"/>
<text class="th" x="340" y="52" text-anchor="middle" dominant-baseline="central" fill="#2C2C2A">Idle</text>
<rect x="240" y="104" width="200" height="56" rx="8" fill="#E1F5EE" stroke="#0F6E56" stroke-width="0.5"/>
<text class="th" x="340" y="122" text-anchor="middle" dominant-baseline="central" fill="#085041">Detect target</text>
<text class="ts" x="340" y="143" text-anchor="middle" dominant-baseline="central" fill="#0F6E56">rank by color + distance</text>
<rect x="240" y="190" width="200" height="56" rx="8" fill="#E1F5EE" stroke="#0F6E56" stroke-width="0.5"/>
<text class="th" x="340" y="208" text-anchor="middle" dominant-baseline="central" fill="#085041">Approach</text>
<text class="ts" x="340" y="229" text-anchor="middle" dominant-baseline="central" fill="#0F6E56">move above + intercept offset</text>
<rect x="240" y="276" width="200" height="56" rx="8" fill="#EEEDFE" stroke="#534AB7" stroke-width="0.5"/>
<text class="th" x="340" y="294" text-anchor="middle" dominant-baseline="central" fill="#26215C">Grip</text>
<text class="ts" x="340" y="315" text-anchor="middle" dominant-baseline="central" fill="#534AB7">descend, close gripper</text>
<rect x="240" y="362" width="200" height="56" rx="8" fill="#EEEDFE" stroke="#534AB7" stroke-width="0.5"/>
<text class="th" x="340" y="380" text-anchor="middle" dominant-baseline="central" fill="#26215C">Lift</text>
<text class="ts" x="340" y="401" text-anchor="middle" dominant-baseline="central" fill="#534AB7">raise to clearance height</text>
<rect x="240" y="448" width="200" height="56" rx="8" fill="#E6F1FB" stroke="#185FA5" stroke-width="0.5"/>
<text class="th" x="340" y="466" text-anchor="middle" dominant-baseline="central" fill="#042C53">Sort</text>
<text class="ts" x="340" y="487" text-anchor="middle" dominant-baseline="central" fill="#185FA5">move to bin, open gripper</text>
<rect x="240" y="534" width="200" height="44" rx="8" fill="#F1EFE8" stroke="#5F5E5A" stroke-width="0.5"/>
<text class="th" x="340" y="556" text-anchor="middle" dominant-baseline="central" fill="#2C2C2A">Return home</text>
<line x1="340" y1="74" x2="340" y2="104" class="arr"/>
<line x1="340" y1="160" x2="340" y2="190" class="arr"/>
<line x1="340" y1="246" x2="340" y2="276" class="arr"/>
<line x1="340" y1="332" x2="340" y2="362" class="arr"/>
<line x1="340" y1="418" x2="340" y2="448" class="arr"/>
<line x1="340" y1="504" x2="340" y2="534" class="arr"/>
<path d="M440,556 H472 V132 H440" fill="none" class="arr" stroke-dasharray="5 3"/>
<text class="ts" x="478" y="350" dominant-baseline="central" fill="#aaa">loop if</text>
<text class="ts" x="478" y="366" dominant-baseline="central" fill="#aaa">more bugs</text>
</svg>
