<?xml version="1.0" encoding="utf-8" standalone="no"?>
<!DOCTYPE svg PUBLIC "-//W3C//DTD SVG 1.1//EN"
  "http://www.w3.org/Graphics/SVG/1.1/DTD/svg11.dtd">
<svg xmlns:xlink="http://www.w3.org/1999/xlink" width="544.4pt" height="435.907875pt" viewBox="0 0 544.4 435.907875" xmlns="http://www.w3.org/2000/svg" version="1.1">
 <metadata>
  <rdf:RDF xmlns:dc="http://purl.org/dc/elements/1.1/" xmlns:cc="http://creativecommons.org/ns#" xmlns:rdf="http://www.w3.org/1999/02/22-rdf-syntax-ns#">
   <cc:Work>
    <dc:type rdf:resource="http://purl.org/dc/dcmitype/StillImage"/>
    <dc:date>2026-04-01T00:24:14.720227</dc:date>
    <dc:format>image/svg+xml</dc:format>
    <dc:creator>
     <cc:Agent>
      <dc:title>Matplotlib v3.10.8, https://matplotlib.org/</dc:title>
     </cc:Agent>
    </dc:creator>
   </cc:Work>
  </rdf:RDF>
 </metadata>
 <defs>
  <style type="text/css">*{stroke-linejoin: round; stroke-linecap: butt}</style>
 </defs>
 <g id="figure_1">
  <g id="patch_1">
   <path d="M 0 435.907875 
L 544.4 435.907875 
L 544.4 0 
L 0 0 
z
" style="fill: #ffffff"/>
  </g>
  <g id="axes_1">
   <g id="patch_2">
    <path d="M 249.328127 225.694437 
Q 172.61565 175.839162 83.702482 172.547881 
" clip-path="url(#pdf2a0e44bc)" style="fill: none; stroke: #534ab7; stroke-opacity: 0.55; stroke-width: 2.25; stroke-linecap: round"/>
    <path d="M 89.979729 175.982436 
L 83.702482 172.547881 
L 90.216474 169.586817 
z
" clip-path="url(#pdf2a0e44bc)" style="fill: #534ab7; fill-opacity: 0.55; stroke: #534ab7; stroke-opacity: 0.55; stroke-width: 2.25; stroke-linecap: round"/>
   </g>
   <g id="patch_3">
    <path d="M 300.19702 241.880488 
Q 391.624033 238.496119 466.649086 189.737459 
" clip-path="url(#pdf2a0e44bc)" style="fill: none; stroke: #534ab7; stroke-opacity: 0.5; stroke-width: 1.8; stroke-linecap: round"/>
    <path d="M 459.539026 190.541857 
L 466.649086 189.737459 
L 463.026568 195.908145 
z
" clip-path="url(#pdf2a0e44bc)" style="fill: #534ab7; fill-opacity: 0.5; stroke: #534ab7; stroke-opacity: 0.5; stroke-width: 1.8; stroke-linecap: round"/>
   </g>
   <g id="patch_4">
    <path d="M 248.13067 256.142286 
Q 182.526516 299.069051 147.623737 367.581669 
" clip-path="url(#pdf2a0e44bc)" style="fill: none; stroke: #534ab7; stroke-opacity: 0.45; stroke-width: 1.35; stroke-linecap: round"/>
    <path d="M 153.380194 363.331587 
L 147.623737 367.581669 
L 147.677546 360.426453 
z
" clip-path="url(#pdf2a0e44bc)" style="fill: #534ab7; fill-opacity: 0.45; stroke: #534ab7; stroke-opacity: 0.45; stroke-width: 1.35; stroke-linecap: round"/>
   </g>
   <g id="patch_5">
    <path d="M 283.816927 267.31465 
Q 319.404062 337.17285 384.165449 379.549357 
" clip-path="url(#pdf2a0e44bc)" style="fill: none; stroke: #534ab7; stroke-opacity: 0.4; stroke-width: 0.9; stroke-linecap: round"/>
    <path d="M 380.562216 373.367391 
L 384.165449 379.549357 
L 377.057936 378.722764 
z
" clip-path="url(#pdf2a0e44bc)" style="fill: #534ab7; fill-opacity: 0.4; stroke: #534ab7; stroke-opacity: 0.4; stroke-width: 0.9; stroke-linecap: round"/>
   </g>
   <g id="patch_6">
    <path d="M 79.715609 181.464684 
Q 272.199373 242.366693 461.325391 182.527467 
" clip-path="url(#pdf2a0e44bc)" style="fill: none; stroke: #534ab7; stroke-opacity: 0.65; stroke-width: 3.15; stroke-linecap: round"/>
    <path d="M 454.25822 181.407158 
L 461.325391 182.527467 
L 456.188841 187.509018 
z
" clip-path="url(#pdf2a0e44bc)" style="fill: #534ab7; fill-opacity: 0.65; stroke: #534ab7; stroke-opacity: 0.65; stroke-width: 3.15; stroke-linecap: round"/>
   </g>
   <g id="patch_7">
    <path d="M 76.063609 188.640882 
Q 152.776086 238.496157 241.186483 241.768827 
" clip-path="url(#pdf2a0e44bc)" style="fill: none; stroke: #534ab7; stroke-opacity: 0.6; stroke-width: 2.7; stroke-linecap: round"/>
    <path d="M 234.909236 238.334272 
L 241.186483 241.768827 
L 234.67249 244.729891 
z
" clip-path="url(#pdf2a0e44bc)" style="fill: #534ab7; fill-opacity: 0.6; stroke: #534ab7; stroke-opacity: 0.6; stroke-width: 2.7; stroke-linecap: round"/>
   </g>
   <g id="patch_8">
    <path d="M 70.969913 194.122877 
Q 195.925757 339.917184 379.885808 387.454856 
" clip-path="url(#pdf2a0e44bc)" style="fill: none; stroke: #534ab7; stroke-opacity: 0.5; stroke-width: 1.8; stroke-linecap: round"/>
    <path d="M 374.489978 382.755386 
L 379.885808 387.454856 
L 372.888734 388.951838 
z
" clip-path="url(#pdf2a0e44bc)" style="fill: #534ab7; fill-opacity: 0.5; stroke: #534ab7; stroke-opacity: 0.5; stroke-width: 1.8; stroke-linecap: round"/>
   </g>
   <g id="patch_9">
    <path d="M 54.459271 200.464156 
Q 62.301802 295.275837 117.483873 371.53378 
" clip-path="url(#pdf2a0e44bc)" style="fill: none; stroke: #534ab7; stroke-opacity: 0.4; stroke-width: 0.9; stroke-linecap: round"/>
    <path d="M 116.324407 364.472928 
L 117.483873 371.53378 
L 111.139511 368.224842 
z
" clip-path="url(#pdf2a0e44bc)" style="fill: #534ab7; fill-opacity: 0.4; stroke: #534ab7; stroke-opacity: 0.4; stroke-width: 0.9; stroke-linecap: round"/>
   </g>
   <g id="patch_10">
    <path d="M 463.211244 172.454831 
Q 371.784232 175.8392 299.712153 222.678727 
" clip-path="url(#pdf2a0e44bc)" style="fill: none; stroke: #534ab7; stroke-opacity: 0.85; stroke-width: 4.95; stroke-linecap: round"/>
    <path d="M 306.822212 221.874329 
L 299.712153 222.678727 
L 303.33467 216.508041 
z
" clip-path="url(#pdf2a0e44bc)" style="fill: #534ab7; fill-opacity: 0.85; stroke: #534ab7; stroke-opacity: 0.85; stroke-width: 4.95; stroke-linecap: round"/>
   </g>
   <g id="patch_11">
    <path d="M 463.962776 178.939632 
Q 278.054201 226.980702 154.407919 371.246871 
" clip-path="url(#pdf2a0e44bc)" style="fill: none; stroke: #534ab7; stroke-opacity: 0.5; stroke-width: 1.8; stroke-linecap: round"/>
    <path d="M 161.002489 368.469887 
L 154.407919 371.246871 
L 156.143073 364.305024 
z
" clip-path="url(#pdf2a0e44bc)" style="fill: #534ab7; fill-opacity: 0.5; stroke: #534ab7; stroke-opacity: 0.5; stroke-width: 1.8; stroke-linecap: round"/>
   </g>
   <g id="patch_12">
    <path d="M 464.684391 163.523916 
Q 272.200627 102.621907 80.676219 163.21998 
" clip-path="url(#pdf2a0e44bc)" style="fill: none; stroke: #534ab7; stroke-opacity: 0.4; stroke-width: 0.9; stroke-linecap: round"/>
    <path d="M 87.74339 164.34029 
L 80.676219 163.21998 
L 85.812769 158.238429 
z
" clip-path="url(#pdf2a0e44bc)" style="fill: #534ab7; fill-opacity: 0.4; stroke: #534ab7; stroke-opacity: 0.4; stroke-width: 0.9; stroke-linecap: round"/>
   </g>
   <g id="patch_13">
    <path d="M 473.961387 194.550246 
Q 418.189773 271.623504 410.430533 365.432507 
" clip-path="url(#pdf2a0e44bc)" style="fill: none; stroke: #534ab7; stroke-opacity: 0.4; stroke-width: 0.9; stroke-linecap: round"/>
    <path d="M 414.147205 359.318069 
L 410.430533 365.432507 
L 407.768986 358.790507 
z
" clip-path="url(#pdf2a0e44bc)" style="fill: #534ab7; fill-opacity: 0.4; stroke: #534ab7; stroke-opacity: 0.4; stroke-width: 0.9; stroke-linecap: round"/>
   </g>
   <g id="patch_14">
    <path d="M 134.052299 366.433945 
Q 126.209768 271.622264 72.50242 197.40229 
" clip-path="url(#pdf2a0e44bc)" style="fill: none; stroke: #534ab7; stroke-opacity: 0.65; stroke-width: 3.15; stroke-linecap: round"/>
    <path d="M 73.661886 204.463142 
L 72.50242 197.40229 
L 78.846782 200.711228 
z
" clip-path="url(#pdf2a0e44bc)" style="fill: #534ab7; fill-opacity: 0.65; stroke: #534ab7; stroke-opacity: 0.65; stroke-width: 3.15; stroke-linecap: round"/>
   </g>
   <g id="patch_15">
    <path d="M 161.949811 403.05804 
Q 272.20179 435.026942 380.037719 403.757587 
" clip-path="url(#pdf2a0e44bc)" style="fill: none; stroke: #534ab7; stroke-opacity: 0.55; stroke-width: 2.25; stroke-linecap: round"/>
    <path d="M 372.999728 402.466586 
L 380.037719 403.757587 
L 374.782123 408.613379 
z
" clip-path="url(#pdf2a0e44bc)" style="fill: #534ab7; fill-opacity: 0.55; stroke: #534ab7; stroke-opacity: 0.55; stroke-width: 2.25; stroke-linecap: round"/>
   </g>
   <g id="patch_16">
    <path d="M 162.565323 387.958469 
Q 348.473898 339.917399 472.12018 195.65123 
" clip-path="url(#pdf2a0e44bc)" style="fill: none; stroke: #534ab7; stroke-opacity: 0.5; stroke-width: 1.8; stroke-linecap: round"/>
    <path d="M 465.52561 198.428215 
L 472.12018 195.65123 
L 470.385026 202.593077 
z
" clip-path="url(#pdf2a0e44bc)" style="fill: #534ab7; fill-opacity: 0.5; stroke: #534ab7; stroke-opacity: 0.5; stroke-width: 1.8; stroke-linecap: round"/>
   </g>
   <g id="patch_17">
    <path d="M 159.389164 380.102534 
Q 224.993319 337.175769 259.896098 268.663152 
" clip-path="url(#pdf2a0e44bc)" style="fill: none; stroke: #534ab7; stroke-opacity: 0.45; stroke-width: 1.35; stroke-linecap: round"/>
    <path d="M 254.139641 272.913234 
L 259.896098 268.663152 
L 259.842289 275.818367 
z
" clip-path="url(#pdf2a0e44bc)" style="fill: #534ab7; fill-opacity: 0.45; stroke: #534ab7; stroke-opacity: 0.45; stroke-width: 1.35; stroke-linecap: round"/>
   </g>
   <g id="patch_18">
    <path d="M 426.327042 372.347855 
Q 482.098657 295.274597 489.526116 205.476818 
" clip-path="url(#pdf2a0e44bc)" style="fill: none; stroke: #534ab7; stroke-opacity: 0.8; stroke-width: 4.5; stroke-linecap: round"/>
    <path d="M 485.809444 211.591256 
L 489.526116 205.476818 
L 492.187663 212.118819 
z
" clip-path="url(#pdf2a0e44bc)" style="fill: #534ab7; fill-opacity: 0.8; stroke: #534ab7; stroke-opacity: 0.8; stroke-width: 4.5; stroke-linecap: round"/>
   </g>
   <g id="patch_19">
    <path d="M 391.301988 372.775225 
Q 266.346144 226.980918 82.873207 179.569122 
" clip-path="url(#pdf2a0e44bc)" style="fill: none; stroke: #534ab7; stroke-opacity: 0.55; stroke-width: 2.25; stroke-linecap: round"/>
    <path d="M 88.269037 184.268592 
L 82.873207 179.569122 
L 89.870281 178.07214 
z
" clip-path="url(#pdf2a0e44bc)" style="fill: #534ab7; fill-opacity: 0.55; stroke: #534ab7; stroke-opacity: 0.55; stroke-width: 2.25; stroke-linecap: round"/>
   </g>
   <g id="patch_20">
    <path d="M 397.463238 368.93017 
Q 361.876103 299.07197 297.114716 256.695463 
" clip-path="url(#pdf2a0e44bc)" style="fill: none; stroke: #534ab7; stroke-opacity: 0.4; stroke-width: 0.9; stroke-linecap: round"/>
    <path d="M 300.71795 262.87743 
L 297.114716 256.695463 
L 304.222229 257.522056 
z
" clip-path="url(#pdf2a0e44bc)" style="fill: #534ab7; fill-opacity: 0.4; stroke: #534ab7; stroke-opacity: 0.4; stroke-width: 0.9; stroke-linecap: round"/>
   </g>
   <g id="patch_21">
    <path d="M 434.434515 382.52911 
Q 457.927059 368.947843 474.610401 348.837668 
" clip-path="url(#pdf2a0e44bc)" style="fill: none; stroke: #534ab7; stroke-opacity: 0.4; stroke-width: 0.9; stroke-linecap: round"/>
    <path d="M 468.061265 351.720169 
L 474.610401 348.837668 
L 472.98692 355.806478 
z
" clip-path="url(#pdf2a0e44bc)" style="fill: #534ab7; fill-opacity: 0.4; stroke: #534ab7; stroke-opacity: 0.4; stroke-width: 0.9; stroke-linecap: round"/>
   </g>
   <g id="patch_22">
    <path d="M 469.297377 307.629211 
Q 393.662683 251.983067 306.673154 243.961748 
" clip-path="url(#pdf2a0e44bc)" style="fill: none; stroke: #534ab7; stroke-opacity: 0.95; stroke-width: 5.85; stroke-linecap: round"/>
    <path d="M 312.752292 247.735882 
L 306.673154 243.961748 
L 313.339944 241.362918 
z
" clip-path="url(#pdf2a0e44bc)" style="fill: #534ab7; fill-opacity: 0.95; stroke: #534ab7; stroke-opacity: 0.95; stroke-width: 5.85; stroke-linecap: round"/>
   </g>
   <g id="patch_23">
    <path d="M 499.171005 298.216126 
Q 510.706287 248.777998 499.629321 201.299699 
" clip-path="url(#pdf2a0e44bc)" style="fill: none; stroke: #534ab7; stroke-opacity: 0.5; stroke-width: 1.8; stroke-linecap: round"/>
    <path d="M 497.967117 208.259374 
L 499.629321 201.299699 
L 504.199739 206.805267 
z
" clip-path="url(#pdf2a0e44bc)" style="fill: #534ab7; fill-opacity: 0.5; stroke: #534ab7; stroke-opacity: 0.5; stroke-width: 1.8; stroke-linecap: round"/>
   </g>
   <g id="patch_24">
    <path d="M 480.296544 299.269756 
Q 420.022225 166.615044 297.197593 90.114951 
" clip-path="url(#pdf2a0e44bc)" style="fill: none; stroke: #534ab7; stroke-opacity: 0.4; stroke-width: 0.9; stroke-linecap: round"/>
    <path d="M 300.938273 96.21473 
L 297.197593 90.114951 
L 304.321824 90.782274 
z
" clip-path="url(#pdf2a0e44bc)" style="fill: #534ab7; fill-opacity: 0.4; stroke: #534ab7; stroke-opacity: 0.4; stroke-width: 0.9; stroke-linecap: round"/>
   </g>
   <g id="patch_25">
    <path d="M 253.604905 96.343379 
Q 154.458634 213.750775 138.119486 362.501132 
" clip-path="url(#pdf2a0e44bc)" style="fill: none; stroke: #534ab7; stroke-opacity: 0.7; stroke-width: 3.6; stroke-linecap: round"/>
    <path d="M 141.999145 356.48879 
L 138.119486 362.501132 
L 135.637408 355.79 
z
" clip-path="url(#pdf2a0e44bc)" style="fill: #534ab7; fill-opacity: 0.7; stroke: #534ab7; stroke-opacity: 0.7; stroke-width: 3.6; stroke-linecap: round"/>
   </g>
   <g id="patch_26">
    <path d="M 244.364154 78.416419 
Q 148.67834 92.329375 76.441338 151.965727 
" clip-path="url(#pdf2a0e44bc)" style="fill: none; stroke: #534ab7; stroke-opacity: 0.6; stroke-width: 2.7; stroke-linecap: round"/>
    <path d="M 83.414013 150.358926 
L 76.441338 151.965727 
L 79.339502 145.423507 
z
" clip-path="url(#pdf2a0e44bc)" style="fill: #534ab7; fill-opacity: 0.6; stroke: #534ab7; stroke-opacity: 0.6; stroke-width: 2.7; stroke-linecap: round"/>
   </g>
   <g id="patch_27">
    <path d="M 264.10437 102.213872 
Q 250.33803 158.624211 263.746177 213.568234 
" clip-path="url(#pdf2a0e44bc)" style="fill: none; stroke: #534ab7; stroke-opacity: 0.45; stroke-width: 1.35; stroke-linecap: round"/>
    <path d="M 265.337663 206.592048 
L 263.746177 213.568234 
L 259.12012 208.109333 
z
" clip-path="url(#pdf2a0e44bc)" style="fill: #534ab7; fill-opacity: 0.45; stroke: #534ab7; stroke-opacity: 0.45; stroke-width: 1.35; stroke-linecap: round"/>
   </g>
   <g id="patch_28">
    <path d="M 274.560086 103.309794 
Q 291.338454 256.061115 389.835272 372.699831 
" clip-path="url(#pdf2a0e44bc)" style="fill: none; stroke: #534ab7; stroke-opacity: 0.4; stroke-width: 0.9; stroke-linecap: round"/>
    <path d="M 388.150944 365.745477 
L 389.835272 372.699831 
L 383.261192 369.874681 
z
" clip-path="url(#pdf2a0e44bc)" style="fill: #534ab7; fill-opacity: 0.4; stroke: #534ab7; stroke-opacity: 0.4; stroke-width: 0.9; stroke-linecap: round"/>
   </g>
   <g id="PathCollection_1">
    <defs>
     <path id="C0_0_c274cea71a" d="M 0 21.794495 
C 5.779968 21.794495 11.323981 19.498089 15.411035 15.411035 
C 19.498089 11.323981 21.794495 5.779968 21.794495 -0 
C 21.794495 -5.779968 19.498089 -11.323981 15.411035 -15.411035 
C 11.323981 -19.498089 5.779968 -21.794495 0 -21.794495 
C -5.779968 -21.794495 -11.323981 -19.498089 -15.411035 -15.411035 
C -19.498089 -11.323981 -21.794495 -5.779968 -21.794495 0 
C -21.794495 5.779968 -19.498089 11.323981 -15.411035 15.411035 
C -11.323981 19.498089 -5.779968 21.794495 0 21.794495 
z
"/>
    </defs>
    <g clip-path="url(#pdf2a0e44bc)">
     <use xlink:href="#C0_0_c274cea71a" x="272.2" y="241.841019" style="fill: #534ab7; stroke: #3c3489; stroke-width: 1.5"/>
    </g>
    <g clip-path="url(#pdf2a0e44bc)">
     <use xlink:href="#C0_0_c274cea71a" x="53.191736" y="172.4943" style="fill: #7f77dd; stroke: #3c3489; stroke-width: 1.5"/>
    </g>
    <g clip-path="url(#pdf2a0e44bc)">
     <use xlink:href="#C0_0_c274cea71a" x="491.208264" y="172.4943" style="fill: #7f77dd; stroke: #3c3489; stroke-width: 1.5"/>
    </g>
    <g clip-path="url(#pdf2a0e44bc)">
     <use xlink:href="#C0_0_c274cea71a" x="135.319835" y="394.403801" style="fill: #afa9ec; stroke: #3c3489; stroke-width: 1.5"/>
    </g>
    <g clip-path="url(#pdf2a0e44bc)">
     <use xlink:href="#C0_0_c274cea71a" x="409.080165" y="394.403801" style="fill: #afa9ec; stroke: #3c3489; stroke-width: 1.5"/>
    </g>
    <g clip-path="url(#pdf2a0e44bc)">
     <use xlink:href="#C0_0_c274cea71a" x="491.208264" y="325.057082" style="fill: #cecbf6; stroke: #3c3489; stroke-width: 1.5"/>
    </g>
    <g clip-path="url(#pdf2a0e44bc)">
     <use xlink:href="#C0_0_c274cea71a" x="272.2" y="75.408893" style="fill: #cecbf6; stroke: #3c3489; stroke-width: 1.5"/>
    </g>
   </g>
   <g id="text_1">
    <!-- I -->
    <g style="fill: #ffffff" transform="translate(269.595781 245.704144) scale(0.14 -0.14)">
     <defs>
      <path id="DejaVuSans-Bold-49" d="M 588 4666 
L 1791 4666 
L 1791 0 
L 588 0 
L 588 4666 
z
" transform="scale(0.015625)"/>
     </defs>
     <use xlink:href="#DejaVuSans-Bold-49"/>
    </g>
   </g>
   <g id="text_2">
    <!-- IV -->
    <g style="fill: #ffffff" transform="translate(45.170173 176.357425) scale(0.14 -0.14)">
     <defs>
      <path id="DejaVuSans-Bold-56" d="M 31 4666 
L 1241 4666 
L 2478 1222 
L 3713 4666 
L 4922 4666 
L 3194 0 
L 1759 0 
L 31 4666 
z
" transform="scale(0.015625)"/>
     </defs>
     <use xlink:href="#DejaVuSans-Bold-49"/>
     <use xlink:href="#DejaVuSans-Bold-56" transform="translate(37.207031 0)"/>
    </g>
   </g>
   <g id="text_3">
    <!-- V -->
    <g style="fill: #ffffff" transform="translate(485.790921 176.357425) scale(0.14 -0.14)">
     <use xlink:href="#DejaVuSans-Bold-56"/>
    </g>
   </g>
   <g id="text_4">
    <!-- vi -->
    <g style="fill: #26215c" transform="translate(128.357022 398.266926) scale(0.14 -0.14)">
     <defs>
      <path id="DejaVuSans-Bold-76" d="M 97 3500 
L 1216 3500 
L 2088 1081 
L 2956 3500 
L 4078 3500 
L 2700 0 
L 1472 0 
L 97 3500 
z
" transform="scale(0.015625)"/>
      <path id="DejaVuSans-Bold-69" d="M 538 3500 
L 1656 3500 
L 1656 0 
L 538 0 
L 538 3500 
z
M 538 4863 
L 1656 4863 
L 1656 3950 
L 538 3950 
L 538 4863 
z
" transform="scale(0.015625)"/>
     </defs>
     <use xlink:href="#DejaVuSans-Bold-76"/>
     <use xlink:href="#DejaVuSans-Bold-69" transform="translate(65.185547 0)"/>
    </g>
   </g>
   <g id="text_5">
    <!-- ii -->
    <g style="fill: #26215c" transform="translate(404.28079 398.266926) scale(0.14 -0.14)">
     <use xlink:href="#DejaVuSans-Bold-69"/>
     <use xlink:href="#DejaVuSans-Bold-69" transform="translate(34.277344 0)"/>
    </g>
   </g>
   <g id="text_6">
    <!-- iii -->
    <g style="fill: #26215c" transform="translate(265.000937 79.272018) scale(0.14 -0.14)">
     <use xlink:href="#DejaVuSans-Bold-69"/>
     <use xlink:href="#DejaVuSans-Bold-69" transform="translate(34.277344 0)"/>
     <use xlink:href="#DejaVuSans-Bold-69" transform="translate(68.554688 0)"/>
    </g>
   </g>
   <g id="text_7">
    <!-- vii -->
    <g style="fill: #26215c" transform="translate(481.845764 328.920207) scale(0.14 -0.14)">
     <use xlink:href="#DejaVuSans-Bold-76"/>
     <use xlink:href="#DejaVuSans-Bold-69" transform="translate(65.185547 0)"/>
     <use xlink:href="#DejaVuSans-Bold-69" transform="translate(99.462891 0)"/>
    </g>
   </g>
   <g id="text_8">
    <!-- Chord transitions — major key -->
    <g style="fill: #444441" transform="translate(188.786484 15.558281) scale(0.11 -0.11)">
     <defs>
      <path id="DejaVuSans-43" d="M 4122 4306 
L 4122 3641 
Q 3803 3938 3442 4084 
Q 3081 4231 2675 4231 
Q 1875 4231 1450 3742 
Q 1025 3253 1025 2328 
Q 1025 1406 1450 917 
Q 1875 428 2675 428 
Q 3081 428 3442 575 
Q 3803 722 4122 1019 
L 4122 359 
Q 3791 134 3420 21 
Q 3050 -91 2638 -91 
Q 1578 -91 968 557 
Q 359 1206 359 2328 
Q 359 3453 968 4101 
Q 1578 4750 2638 4750 
Q 3056 4750 3426 4639 
Q 3797 4528 4122 4306 
z
" transform="scale(0.015625)"/>
      <path id="DejaVuSans-68" d="M 3513 2113 
L 3513 0 
L 2938 0 
L 2938 2094 
Q 2938 2591 2744 2837 
Q 2550 3084 2163 3084 
Q 1697 3084 1428 2787 
Q 1159 2491 1159 1978 
L 1159 0 
L 581 0 
L 581 4863 
L 1159 4863 
L 1159 2956 
Q 1366 3272 1645 3428 
Q 1925 3584 2291 3584 
Q 2894 3584 3203 3211 
Q 3513 2838 3513 2113 
z
" transform="scale(0.015625)"/>
      <path id="DejaVuSans-6f" d="M 1959 3097 
Q 1497 3097 1228 2736 
Q 959 2375 959 1747 
Q 959 1119 1226 758 
Q 1494 397 1959 397 
Q 2419 397 2687 759 
Q 2956 1122 2956 1747 
Q 2956 2369 2687 2733 
Q 2419 3097 1959 3097 
z
M 1959 3584 
Q 2709 3584 3137 3096 
Q 3566 2609 3566 1747 
Q 3566 888 3137 398 
Q 2709 -91 1959 -91 
Q 1206 -91 779 398 
Q 353 888 353 1747 
Q 353 2609 779 3096 
Q 1206 3584 1959 3584 
z
" transform="scale(0.015625)"/>
      <path id="DejaVuSans-72" d="M 2631 2963 
Q 2534 3019 2420 3045 
Q 2306 3072 2169 3072 
Q 1681 3072 1420 2755 
Q 1159 2438 1159 1844 
L 1159 0 
L 581 0 
L 581 3500 
L 1159 3500 
L 1159 2956 
Q 1341 3275 1631 3429 
Q 1922 3584 2338 3584 
Q 2397 3584 2469 3576 
Q 2541 3569 2628 3553 
L 2631 2963 
z
" transform="scale(0.015625)"/>
      <path id="DejaVuSans-64" d="M 2906 2969 
L 2906 4863 
L 3481 4863 
L 3481 0 
L 2906 0 
L 2906 525 
Q 2725 213 2448 61 
Q 2172 -91 1784 -91 
Q 1150 -91 751 415 
Q 353 922 353 1747 
Q 353 2572 751 3078 
Q 1150 3584 1784 3584 
Q 2172 3584 2448 3432 
Q 2725 3281 2906 2969 
z
M 947 1747 
Q 947 1113 1208 752 
Q 1469 391 1925 391 
Q 2381 391 2643 752 
Q 2906 1113 2906 1747 
Q 2906 2381 2643 2742 
Q 2381 3103 1925 3103 
Q 1469 3103 1208 2742 
Q 947 2381 947 1747 
z
" transform="scale(0.015625)"/>
      <path id="DejaVuSans-20" transform="scale(0.015625)"/>
      <path id="DejaVuSans-74" d="M 1172 4494 
L 1172 3500 
L 2356 3500 
L 2356 3053 
L 1172 3053 
L 1172 1153 
Q 1172 725 1289 603 
Q 1406 481 1766 481 
L 2356 481 
L 2356 0 
L 1766 0 
Q 1100 0 847 248 
Q 594 497 594 1153 
L 594 3053 
L 172 3053 
L 172 3500 
L 594 3500 
L 594 4494 
L 1172 4494 
z
" transform="scale(0.015625)"/>
      <path id="DejaVuSans-61" d="M 2194 1759 
Q 1497 1759 1228 1600 
Q 959 1441 959 1056 
Q 959 750 1161 570 
Q 1363 391 1709 391 
Q 2188 391 2477 730 
Q 2766 1069 2766 1631 
L 2766 1759 
L 2194 1759 
z
M 3341 1997 
L 3341 0 
L 2766 0 
L 2766 531 
Q 2569 213 2275 61 
Q 1981 -91 1556 -91 
Q 1019 -91 701 211 
Q 384 513 384 1019 
Q 384 1609 779 1909 
Q 1175 2209 1959 2209 
L 2766 2209 
L 2766 2266 
Q 2766 2663 2505 2880 
Q 2244 3097 1772 3097 
Q 1472 3097 1187 3025 
Q 903 2953 641 2809 
L 641 3341 
Q 956 3463 1253 3523 
Q 1550 3584 1831 3584 
Q 2591 3584 2966 3190 
Q 3341 2797 3341 1997 
z
" transform="scale(0.015625)"/>
      <path id="DejaVuSans-6e" d="M 3513 2113 
L 3513 0 
L 2938 0 
L 2938 2094 
Q 2938 2591 2744 2837 
Q 2550 3084 2163 3084 
Q 1697 3084 1428 2787 
Q 1159 2491 1159 1978 
L 1159 0 
L 581 0 
L 581 3500 
L 1159 3500 
L 1159 2956 
Q 1366 3272 1645 3428 
Q 1925 3584 2291 3584 
Q 2894 3584 3203 3211 
Q 3513 2838 3513 2113 
z
" transform="scale(0.015625)"/>
      <path id="DejaVuSans-73" d="M 2834 3397 
L 2834 2853 
Q 2591 2978 2328 3040 
Q 2066 3103 1784 3103 
Q 1356 3103 1142 2972 
Q 928 2841 928 2578 
Q 928 2378 1081 2264 
Q 1234 2150 1697 2047 
L 1894 2003 
Q 2506 1872 2764 1633 
Q 3022 1394 3022 966 
Q 3022 478 2636 193 
Q 2250 -91 1575 -91 
Q 1294 -91 989 -36 
Q 684 19 347 128 
L 347 722 
Q 666 556 975 473 
Q 1284 391 1588 391 
Q 1994 391 2212 530 
Q 2431 669 2431 922 
Q 2431 1156 2273 1281 
Q 2116 1406 1581 1522 
L 1381 1569 
Q 847 1681 609 1914 
Q 372 2147 372 2553 
Q 372 3047 722 3315 
Q 1072 3584 1716 3584 
Q 2034 3584 2315 3537 
Q 2597 3491 2834 3397 
z
" transform="scale(0.015625)"/>
      <path id="DejaVuSans-69" d="M 603 3500 
L 1178 3500 
L 1178 0 
L 603 0 
L 603 3500 
z
M 603 4863 
L 1178 4863 
L 1178 4134 
L 603 4134 
L 603 4863 
z
" transform="scale(0.015625)"/>
      <path id="DejaVuSans-2014" d="M 313 1978 
L 6088 1978 
L 6088 1528 
L 313 1528 
L 313 1978 
z
" transform="scale(0.015625)"/>
      <path id="DejaVuSans-6d" d="M 3328 2828 
Q 3544 3216 3844 3400 
Q 4144 3584 4550 3584 
Q 5097 3584 5394 3201 
Q 5691 2819 5691 2113 
L 5691 0 
L 5113 0 
L 5113 2094 
Q 5113 2597 4934 2840 
Q 4756 3084 4391 3084 
Q 3944 3084 3684 2787 
Q 3425 2491 3425 1978 
L 3425 0 
L 2847 0 
L 2847 2094 
Q 2847 2600 2669 2842 
Q 2491 3084 2119 3084 
Q 1678 3084 1418 2786 
Q 1159 2488 1159 1978 
L 1159 0 
L 581 0 
L 581 3500 
L 1159 3500 
L 1159 2956 
Q 1356 3278 1631 3431 
Q 1906 3584 2284 3584 
Q 2666 3584 2933 3390 
Q 3200 3197 3328 2828 
z
" transform="scale(0.015625)"/>
      <path id="DejaVuSans-6a" d="M 603 3500 
L 1178 3500 
L 1178 -63 
Q 1178 -731 923 -1031 
Q 669 -1331 103 -1331 
L -116 -1331 
L -116 -844 
L 38 -844 
Q 366 -844 484 -692 
Q 603 -541 603 -63 
L 603 3500 
z
M 603 4863 
L 1178 4863 
L 1178 4134 
L 603 4134 
L 603 4863 
z
" transform="scale(0.015625)"/>
      <path id="DejaVuSans-6b" d="M 581 4863 
L 1159 4863 
L 1159 1991 
L 2875 3500 
L 3609 3500 
L 1753 1863 
L 3688 0 
L 2938 0 
L 1159 1709 
L 1159 0 
L 581 0 
L 581 4863 
z
" transform="scale(0.015625)"/>
      <path id="DejaVuSans-65" d="M 3597 1894 
L 3597 1613 
L 953 1613 
Q 991 1019 1311 708 
Q 1631 397 2203 397 
Q 2534 397 2845 478 
Q 3156 559 3463 722 
L 3463 178 
Q 3153 47 2828 -22 
Q 2503 -91 2169 -91 
Q 1331 -91 842 396 
Q 353 884 353 1716 
Q 353 2575 817 3079 
Q 1281 3584 2069 3584 
Q 2775 3584 3186 3129 
Q 3597 2675 3597 1894 
z
M 3022 2063 
Q 3016 2534 2758 2815 
Q 2500 3097 2075 3097 
Q 1594 3097 1305 2825 
Q 1016 2553 972 2059 
L 3022 2063 
z
" transform="scale(0.015625)"/>
      <path id="DejaVuSans-79" d="M 2059 -325 
Q 1816 -950 1584 -1140 
Q 1353 -1331 966 -1331 
L 506 -1331 
L 506 -850 
L 844 -850 
Q 1081 -850 1212 -737 
Q 1344 -625 1503 -206 
L 1606 56 
L 191 3500 
L 800 3500 
L 1894 763 
L 2988 3500 
L 3597 3500 
L 2059 -325 
z
" transform="scale(0.015625)"/>
     </defs>
     <use xlink:href="#DejaVuSans-43"/>
     <use xlink:href="#DejaVuSans-68" transform="translate(69.824219 0)"/>
     <use xlink:href="#DejaVuSans-6f" transform="translate(133.203125 0)"/>
     <use xlink:href="#DejaVuSans-72" transform="translate(194.384766 0)"/>
     <use xlink:href="#DejaVuSans-64" transform="translate(233.748047 0)"/>
     <use xlink:href="#DejaVuSans-20" transform="translate(297.224609 0)"/>
     <use xlink:href="#DejaVuSans-74" transform="translate(329.011719 0)"/>
     <use xlink:href="#DejaVuSans-72" transform="translate(368.220703 0)"/>
     <use xlink:href="#DejaVuSans-61" transform="translate(409.333984 0)"/>
     <use xlink:href="#DejaVuSans-6e" transform="translate(470.613281 0)"/>
     <use xlink:href="#DejaVuSans-73" transform="translate(533.992188 0)"/>
     <use xlink:href="#DejaVuSans-69" transform="translate(586.091797 0)"/>
     <use xlink:href="#DejaVuSans-74" transform="translate(613.875 0)"/>
     <use xlink:href="#DejaVuSans-69" transform="translate(653.083984 0)"/>
     <use xlink:href="#DejaVuSans-6f" transform="translate(680.867188 0)"/>
     <use xlink:href="#DejaVuSans-6e" transform="translate(742.048828 0)"/>
     <use xlink:href="#DejaVuSans-73" transform="translate(805.427734 0)"/>
     <use xlink:href="#DejaVuSans-20" transform="translate(857.527344 0)"/>
     <use xlink:href="#DejaVuSans-2014" transform="translate(889.314453 0)"/>
     <use xlink:href="#DejaVuSans-20" transform="translate(989.314453 0)"/>
     <use xlink:href="#DejaVuSans-6d" transform="translate(1021.101562 0)"/>
     <use xlink:href="#DejaVuSans-61" transform="translate(1118.513672 0)"/>
     <use xlink:href="#DejaVuSans-6a" transform="translate(1179.792969 0)"/>
     <use xlink:href="#DejaVuSans-6f" transform="translate(1207.576172 0)"/>
     <use xlink:href="#DejaVuSans-72" transform="translate(1268.757812 0)"/>
     <use xlink:href="#DejaVuSans-20" transform="translate(1309.871094 0)"/>
     <use xlink:href="#DejaVuSans-6b" transform="translate(1341.658203 0)"/>
     <use xlink:href="#DejaVuSans-65" transform="translate(1395.943359 0)"/>
     <use xlink:href="#DejaVuSans-79" transform="translate(1457.466797 0)"/>
    </g>
    <!-- Line weight = transition probability -->
    <g style="fill: #444441" transform="translate(175.048516 27.875875) scale(0.11 -0.11)">
     <defs>
      <path id="DejaVuSans-4c" d="M 628 4666 
L 1259 4666 
L 1259 531 
L 3531 531 
L 3531 0 
L 628 0 
L 628 4666 
z
" transform="scale(0.015625)"/>
      <path id="DejaVuSans-77" d="M 269 3500 
L 844 3500 
L 1563 769 
L 2278 3500 
L 2956 3500 
L 3675 769 
L 4391 3500 
L 4966 3500 
L 4050 0 
L 3372 0 
L 2619 2869 
L 1863 0 
L 1184 0 
L 269 3500 
z
" transform="scale(0.015625)"/>
      <path id="DejaVuSans-67" d="M 2906 1791 
Q 2906 2416 2648 2759 
Q 2391 3103 1925 3103 
Q 1463 3103 1205 2759 
Q 947 2416 947 1791 
Q 947 1169 1205 825 
Q 1463 481 1925 481 
Q 2391 481 2648 825 
Q 2906 1169 2906 1791 
z
M 3481 434 
Q 3481 -459 3084 -895 
Q 2688 -1331 1869 -1331 
Q 1566 -1331 1297 -1286 
Q 1028 -1241 775 -1147 
L 775 -588 
Q 1028 -725 1275 -790 
Q 1522 -856 1778 -856 
Q 2344 -856 2625 -561 
Q 2906 -266 2906 331 
L 2906 616 
Q 2728 306 2450 153 
Q 2172 0 1784 0 
Q 1141 0 747 490 
Q 353 981 353 1791 
Q 353 2603 747 3093 
Q 1141 3584 1784 3584 
Q 2172 3584 2450 3431 
Q 2728 3278 2906 2969 
L 2906 3500 
L 3481 3500 
L 3481 434 
z
" transform="scale(0.015625)"/>
      <path id="DejaVuSans-3d" d="M 678 2906 
L 4684 2906 
L 4684 2381 
L 678 2381 
L 678 2906 
z
M 678 1631 
L 4684 1631 
L 4684 1100 
L 678 1100 
L 678 1631 
z
" transform="scale(0.015625)"/>
      <path id="DejaVuSans-70" d="M 1159 525 
L 1159 -1331 
L 581 -1331 
L 581 3500 
L 1159 3500 
L 1159 2969 
Q 1341 3281 1617 3432 
Q 1894 3584 2278 3584 
Q 2916 3584 3314 3078 
Q 3713 2572 3713 1747 
Q 3713 922 3314 415 
Q 2916 -91 2278 -91 
Q 1894 -91 1617 61 
Q 1341 213 1159 525 
z
M 3116 1747 
Q 3116 2381 2855 2742 
Q 2594 3103 2138 3103 
Q 1681 3103 1420 2742 
Q 1159 2381 1159 1747 
Q 1159 1113 1420 752 
Q 1681 391 2138 391 
Q 2594 391 2855 752 
Q 3116 1113 3116 1747 
z
" transform="scale(0.015625)"/>
      <path id="DejaVuSans-62" d="M 3116 1747 
Q 3116 2381 2855 2742 
Q 2594 3103 2138 3103 
Q 1681 3103 1420 2742 
Q 1159 2381 1159 1747 
Q 1159 1113 1420 752 
Q 1681 391 2138 391 
Q 2594 391 2855 752 
Q 3116 1113 3116 1747 
z
M 1159 2969 
Q 1341 3281 1617 3432 
Q 1894 3584 2278 3584 
Q 2916 3584 3314 3078 
Q 3713 2572 3713 1747 
Q 3713 922 3314 415 
Q 2916 -91 2278 -91 
Q 1894 -91 1617 61 
Q 1341 213 1159 525 
L 1159 0 
L 581 0 
L 581 4863 
L 1159 4863 
L 1159 2969 
z
" transform="scale(0.015625)"/>
      <path id="DejaVuSans-6c" d="M 603 4863 
L 1178 4863 
L 1178 0 
L 603 0 
L 603 4863 
z
" transform="scale(0.015625)"/>
     </defs>
     <use xlink:href="#DejaVuSans-4c"/>
     <use xlink:href="#DejaVuSans-69" transform="translate(55.712891 0)"/>
     <use xlink:href="#DejaVuSans-6e" transform="translate(83.496094 0)"/>
     <use xlink:href="#DejaVuSans-65" transform="translate(146.875 0)"/>
     <use xlink:href="#DejaVuSans-20" transform="translate(208.398438 0)"/>
     <use xlink:href="#DejaVuSans-77" transform="translate(240.185547 0)"/>
     <use xlink:href="#DejaVuSans-65" transform="translate(321.972656 0)"/>
     <use xlink:href="#DejaVuSans-69" transform="translate(383.496094 0)"/>
     <use xlink:href="#DejaVuSans-67" transform="translate(411.279297 0)"/>
     <use xlink:href="#DejaVuSans-68" transform="translate(474.755859 0)"/>
     <use xlink:href="#DejaVuSans-74" transform="translate(538.134766 0)"/>
     <use xlink:href="#DejaVuSans-20" transform="translate(577.34375 0)"/>
     <use xlink:href="#DejaVuSans-3d" transform="translate(609.130859 0)"/>
     <use xlink:href="#DejaVuSans-20" transform="translate(692.919922 0)"/>
     <use xlink:href="#DejaVuSans-74" transform="translate(724.707031 0)"/>
     <use xlink:href="#DejaVuSans-72" transform="translate(763.916016 0)"/>
     <use xlink:href="#DejaVuSans-61" transform="translate(805.029297 0)"/>
     <use xlink:href="#DejaVuSans-6e" transform="translate(866.308594 0)"/>
     <use xlink:href="#DejaVuSans-73" transform="translate(929.6875 0)"/>
     <use xlink:href="#DejaVuSans-69" transform="translate(981.787109 0)"/>
     <use xlink:href="#DejaVuSans-74" transform="translate(1009.570312 0)"/>
     <use xlink:href="#DejaVuSans-69" transform="translate(1048.779297 0)"/>
     <use xlink:href="#DejaVuSans-6f" transform="translate(1076.5625 0)"/>
     <use xlink:href="#DejaVuSans-6e" transform="translate(1137.744141 0)"/>
     <use xlink:href="#DejaVuSans-20" transform="translate(1201.123047 0)"/>
     <use xlink:href="#DejaVuSans-70" transform="translate(1232.910156 0)"/>
     <use xlink:href="#DejaVuSans-72" transform="translate(1296.386719 0)"/>
     <use xlink:href="#DejaVuSans-6f" transform="translate(1335.25 0)"/>
     <use xlink:href="#DejaVuSans-62" transform="translate(1396.431641 0)"/>
     <use xlink:href="#DejaVuSans-61" transform="translate(1459.908203 0)"/>
     <use xlink:href="#DejaVuSans-62" transform="translate(1521.1875 0)"/>
     <use xlink:href="#DejaVuSans-69" transform="translate(1584.664062 0)"/>
     <use xlink:href="#DejaVuSans-6c" transform="translate(1612.447266 0)"/>
     <use xlink:href="#DejaVuSans-69" transform="translate(1640.230469 0)"/>
     <use xlink:href="#DejaVuSans-74" transform="translate(1668.013672 0)"/>
     <use xlink:href="#DejaVuSans-79" transform="translate(1707.222656 0)"/>
    </g>
   </g>
   <g id="legend_1">
    <g id="patch_29">
     <path d="M 431.601875 424.207875 
L 530.9 424.207875 
Q 532.7 424.207875 532.7 422.407875 
L 532.7 396.88725 
Q 532.7 395.08725 530.9 395.08725 
L 431.601875 395.08725 
Q 429.801875 395.08725 429.801875 396.88725 
L 429.801875 422.407875 
Q 429.801875 424.207875 431.601875 424.207875 
L 431.601875 424.207875 
z
" style="fill: none; opacity: 0"/>
    </g>
    <g id="patch_30">
     <path d="M 433.401875 405.525844 
L 451.401875 405.525844 
L 451.401875 399.225844 
L 433.401875 399.225844 
z
" style="fill: #534ab7; opacity: 0.4"/>
    </g>
    <g id="text_9">
     <!-- low probability -->
     <g style="fill: #5f5e5a" transform="translate(458.601875 405.525844) scale(0.09 -0.09)">
      <use xlink:href="#DejaVuSans-6c"/>
      <use xlink:href="#DejaVuSans-6f" transform="translate(27.783203 0)"/>
      <use xlink:href="#DejaVuSans-77" transform="translate(88.964844 0)"/>
      <use xlink:href="#DejaVuSans-20" transform="translate(170.751953 0)"/>
      <use xlink:href="#DejaVuSans-70" transform="translate(202.539062 0)"/>
      <use xlink:href="#DejaVuSans-72" transform="translate(266.015625 0)"/>
      <use xlink:href="#DejaVuSans-6f" transform="translate(304.878906 0)"/>
      <use xlink:href="#DejaVuSans-62" transform="translate(366.060547 0)"/>
      <use xlink:href="#DejaVuSans-61" transform="translate(429.537109 0)"/>
      <use xlink:href="#DejaVuSans-62" transform="translate(490.816406 0)"/>
      <use xlink:href="#DejaVuSans-69" transform="translate(554.292969 0)"/>
      <use xlink:href="#DejaVuSans-6c" transform="translate(582.076172 0)"/>
      <use xlink:href="#DejaVuSans-69" transform="translate(609.859375 0)"/>
      <use xlink:href="#DejaVuSans-74" transform="translate(637.642578 0)"/>
      <use xlink:href="#DejaVuSans-79" transform="translate(676.851562 0)"/>
     </g>
    </g>
    <g id="patch_31">
     <path d="M 433.401875 418.736156 
L 451.401875 418.736156 
L 451.401875 412.436156 
L 433.401875 412.436156 
z
" style="fill: #534ab7; opacity: 0.9"/>
    </g>
    <g id="text_10">
     <!-- high probability -->
     <g style="fill: #5f5e5a" transform="translate(458.601875 418.736156) scale(0.09 -0.09)">
      <use xlink:href="#DejaVuSans-68"/>
      <use xlink:href="#DejaVuSans-69" transform="translate(63.378906 0)"/>
      <use xlink:href="#DejaVuSans-67" transform="translate(91.162109 0)"/>
      <use xlink:href="#DejaVuSans-68" transform="translate(154.638672 0)"/>
      <use xlink:href="#DejaVuSans-20" transform="translate(218.017578 0)"/>
      <use xlink:href="#DejaVuSans-70" transform="translate(249.804688 0)"/>
      <use xlink:href="#DejaVuSans-72" transform="translate(313.28125 0)"/>
      <use xlink:href="#DejaVuSans-6f" transform="translate(352.144531 0)"/>
      <use xlink:href="#DejaVuSans-62" transform="translate(413.326172 0)"/>
      <use xlink:href="#DejaVuSans-61" transform="translate(476.802734 0)"/>
      <use xlink:href="#DejaVuSans-62" transform="translate(538.082031 0)"/>
      <use xlink:href="#DejaVuSans-69" transform="translate(601.558594 0)"/>
      <use xlink:href="#DejaVuSans-6c" transform="translate(629.341797 0)"/>
      <use xlink:href="#DejaVuSans-69" transform="translate(657.125 0)"/>
      <use xlink:href="#DejaVuSans-74" transform="translate(684.908203 0)"/>
      <use xlink:href="#DejaVuSans-79" transform="translate(724.117188 0)"/>
     </g>
    </g>
   </g>
  </g>
 </g>
 <defs>
  <clipPath id="pdf2a0e44bc">
   <rect x="7.2" y="41.875875" width="530" height="386.832"/>
  </clipPath>
 </defs>
</svg>
