<?xml version="1.0" encoding="utf-8"?>
<svg xmlns="http://www.w3.org/2000/svg" width="680" viewBox="0 0 680 820" style="background:#ffffff;font-family:'Helvetica Neue',Arial,sans-serif">
  <defs>
    <marker id="arrow" viewBox="0 0 10 10" refX="8" refY="5" markerWidth="6" markerHeight="6" orient="auto-start-reverse">
      <path d="M2 1L8 5L2 9" fill="none" stroke="#888780" stroke-width="1.5" stroke-linecap="round" stroke-linejoin="round"/>
    </marker>
    <marker id="arrow-dash" viewBox="0 0 10 10" refX="8" refY="5" markerWidth="5" markerHeight="5" orient="auto-start-reverse">
      <path d="M2 1L8 5L2 9" fill="none" stroke="#888780" stroke-width="1.5" stroke-linecap="round" stroke-linejoin="round"/>
    </marker>
  </defs>
  <rect x="100" y="30" width="120" height="52" rx="8" fill="#F1EFE8" stroke="#B4B2A9" stroke-width="0.5"/>
  <text font-weight="500" font-size="14" x="160" y="52" text-anchor="middle" fill="#2C2C2A" style="white-space: pre;">Microphone</text>
  <text font-size="12" x="160" y="69" text-anchor="middle" fill="#5F5E5A" style="white-space: pre;">live input</text>
  <rect x="460" y="30" width="120" height="52" rx="8" fill="#F1EFE8" stroke="#B4B2A9" stroke-width="0.5"/>
  <text font-weight="500" font-size="14" x="520" y="52" text-anchor="middle" fill="#2C2C2A" style="white-space: pre;">Audio file</text>
  <text font-size="12" x="520" y="69" text-anchor="middle" fill="#5F5E5A" style="white-space: pre;">MP3 · WAV · FLAC</text>
  <text font-size="11" x="28" y="170" text-anchor="middle" fill="#B4B2A9" transform="rotate(-90,28,170)" style="white-space: pre;">LAYER 1</text>
  <rect x="60" y="130" width="175" height="64" rx="8" fill="#EEEDFE" stroke="#AFA9EC" stroke-width="0.5"/>
  <text font-weight="500" font-size="14" x="147" y="152" text-anchor="middle" fill="#26215C" style="white-space: pre;">Vocal2MIDI_live</text>
  <text font-size="12" x="147" y="169" text-anchor="middle" fill="#3C3489" style="white-space: pre;">CREPE · pYIN · aubio · CQT</text>
  <text font-size="12" x="147" y="184" text-anchor="middle" fill="#534AB7" style="white-space: pre;">voice · instrument · chord</text>
  <rect x="445" y="130" width="175" height="64" rx="8" fill="#EEEDFE" stroke="#AFA9EC" stroke-width="0.5"/>
  <text font-weight="500" font-size="14" x="532" y="152" text-anchor="middle" fill="#26215C" style="white-space: pre;">Vocal2MIDI_file</text>
  <text font-size="12" x="532" y="169" text-anchor="middle" fill="#3C3489" style="white-space: pre;">Demucs stem separation</text>
  <text font-size="12" x="532" y="184" text-anchor="middle" fill="#534AB7" style="white-space: pre;">Basic Pitch ONNX</text>
  <line x1="160" y1="82" x2="160" y2="130" stroke="#888780" stroke-width="1.2" marker-end="url(#arrow)"/>
  <line x1="520" y1="82" x2="520" y2="130" stroke="#888780" stroke-width="1.2" marker-end="url(#arrow)"/>
  <line x1="235" y1="162" x2="290" y2="235" stroke="#888780" stroke-width="1.2" marker-end="url(#arrow)"/>
  <line x1="445" y1="162" x2="390" y2="235" stroke="#888780" stroke-width="1.2" marker-end="url(#arrow)"/>
  <text font-size="11" x="340" y="226" text-anchor="middle" fill="#B4B2A9" style="white-space: pre;">layer2_queue</text>
  <rect x="499.035" y="228" width="160" height="52" rx="8" fill="#FAEEDA" stroke="#FAC775" stroke-width="0.5"/>
  <text font-weight="500" font-size="14" x="579.704" y="247.751" text-anchor="middle" fill="#412402" style="white-space: pre; font-size: 14px;">Web frontend</text>
  <text font-size="12" x="581.483" y="267.017" text-anchor="middle" fill="#633806" style="white-space: pre; font-size: 12px;">React · Vite · live UI</text>
  <path d="M 454.777 162 C 425.223 188.483 440 220.54 499.107 258.174" fill="none" stroke="#D3D1C7" stroke-dasharray="4 3" stroke-width="1" marker-end="url(#arrow-dash)" style=""/>
  <text font-size="11" x="455" y="216" text-anchor="end" fill="#B4B2A9" style="white-space: pre;">WebSocket</text>
  <rect x="499.245" y="299.922" width="160" height="52" rx="8" fill="#FAEEDA" stroke="#FAC775" stroke-width="0.5"/>
  <text font-weight="500" font-size="14" x="579.394" y="323.914" text-anchor="middle" fill="#412402" style="white-space: pre; font-size: 14px;">Max/MSP patch</text>
  <text font-size="12" x="578.38" y="340.665" text-anchor="middle" fill="#633806" style="white-space: pre; font-size: 12px;">keyboard viz · note history</text>
  <path d="M 454.558 162 C 425.442 236.705 440 292.733 498.232 330.086" fill="none" stroke="#D3D1C7" stroke-dasharray="4 3" stroke-width="1" marker-end="url(#arrow-dash)" style=""/>
  <text font-size="11" x="455" y="289" text-anchor="end" fill="#B4B2A9" style="white-space: pre;">MIDI port</text>
  <text font-size="11" x="28" y="320" text-anchor="middle" fill="#B4B2A9" transform="rotate(-90,28,320)" style="white-space: pre;">LAYER 2a</text>
  <rect x="195" y="240" width="290" height="80" rx="8" fill="#E6F1FB" stroke="#85B7EB" stroke-width="0.5"/>
  <text font-weight="500" font-size="14" x="340" y="263" text-anchor="middle" fill="#042C53" style="white-space: pre;">MIDI2Chords</text>
  <text font-size="12" x="340" y="281" text-anchor="middle" fill="#0C447C" style="white-space: pre;">Krumhansl key detection</text>
  <text font-size="12" x="340" y="297" text-anchor="middle" fill="#185FA5" style="white-space: pre;">Markov chord sequencer · voicing</text>
  <line x1="340" y1="236" x2="340" y2="240" stroke="#888780" stroke-width="1.2" marker-end="url(#arrow)"/>
  <text font-size="11" x="28" y="410" text-anchor="middle" fill="#B4B2A9" transform="rotate(-90,28,410)" style="white-space: pre;">LAYER 2b</text>
  <rect x="195" y="352" width="290" height="64" rx="8" fill="#E6F1FB" stroke="#85B7EB" stroke-width="0.5"/>
  <text font-weight="500" font-size="14" x="340" y="372" text-anchor="middle" fill="#042C53" style="white-space: pre;">MIDI2Piano</text>
  <text font-size="12" x="340" y="390" text-anchor="middle" fill="#0C447C" style="white-space: pre;">rail planner · serial driver</text>
  <text font-size="12" x="340" y="406" text-anchor="middle" fill="#185FA5" style="white-space: pre;">MOVE / FIRE commands</text>
  <line x1="340" y1="320" x2="340" y2="352" stroke="#888780" stroke-width="1.2" marker-end="url(#arrow)"/>
  <text font-size="11" x="28" y="490" text-anchor="middle" fill="#B4B2A9" transform="rotate(-90,28,490)" style="white-space: pre;">FIRMWARE</text>
  <rect x="220" y="452" width="240" height="52" rx="8" fill="#E1F5EE" stroke="#5DCAA5" stroke-width="0.5"/>
  <text font-weight="500" font-size="14" x="340" y="472" text-anchor="middle" fill="#04342C" style="white-space: pre;">Teensy 4.1</text>
  <text font-size="12" x="340" y="489" text-anchor="middle" fill="#085041" style="white-space: pre;">TMC2209 stepper · 74HC595 shift reg</text>
  <line x1="340" y1="416" x2="340" y2="452" stroke="#888780" stroke-width="1.2" marker-end="url(#arrow)"/>
  <text font-size="11" x="28" y="600" text-anchor="middle" fill="#B4B2A9" transform="rotate(-90,28,600)" style="white-space: pre;">HARDWARE</text>
  <rect x="60" y="548" width="195" height="72" rx="8" fill="#E1F5EE" stroke="#5DCAA5" stroke-width="0.5"/>
  <text font-weight="500" font-size="14" x="157" y="568" text-anchor="middle" fill="#04342C" style="white-space: pre;">Left driver board</text>
  <text font-size="12" x="157" y="585" text-anchor="middle" fill="#085041" style="white-space: pre;">SOL 1–15 · IRLZ34N</text>
  <text font-size="12" x="157" y="602" text-anchor="middle" fill="#0F6E56" style="white-space: pre;">A Bb B C C# D Eb E F F# G Ab A Bb B</text>
  <rect x="425" y="548" width="195" height="72" rx="8" fill="#E1F5EE" stroke="#5DCAA5" stroke-width="0.5"/>
  <text font-weight="500" font-size="14" x="522" y="568" text-anchor="middle" fill="#04342C" style="white-space: pre;">Right driver board</text>
  <text font-size="12" x="522" y="585" text-anchor="middle" fill="#085041" style="white-space: pre;">SOL 16–30 · IRLZ34N</text>
  <text font-size="12" x="522" y="602" text-anchor="middle" fill="#0F6E56" style="white-space: pre;">C C# D Eb E F F# G Ab A Bb B C C# D</text>
  <path d="M295 504 L255 504 L205 548" fill="none" stroke="#888780" stroke-width="1.2" marker-end="url(#arrow)"/>
  <path d="M385 504 L425 504 L475 548" fill="none" stroke="#888780" stroke-width="1.2" marker-end="url(#arrow)"/>
  <rect x="60" y="648" width="90" height="44" rx="8" fill="#FAECE7" stroke="#F0997B" stroke-width="0.5"/>
  <text font-weight="500" font-size="14" x="105" y="664" text-anchor="middle" fill="#4A1B0C" style="white-space: pre;">NEMA17</text>
  <text font-size="12" x="105" y="681" text-anchor="middle" fill="#712B13" style="white-space: pre;">left rail</text>
  <rect x="530" y="648" width="90" height="44" rx="8" fill="#FAECE7" stroke="#F0997B" stroke-width="0.5"/>
  <text font-weight="500" font-size="14" x="575" y="664" text-anchor="middle" fill="#4A1B0C" style="white-space: pre;">NEMA17</text>
  <text font-size="12" x="575" y="681" text-anchor="middle" fill="#712B13" style="white-space: pre;">right rail</text>
  <line x1="157" y1="620" x2="120" y2="648" stroke="#888780" stroke-width="1.2" marker-end="url(#arrow)"/>
  <line x1="522" y1="620" x2="560" y2="648" stroke="#888780" stroke-width="1.2" marker-end="url(#arrow)"/>
  <rect x="60" y="720" width="560" height="44" rx="8" fill="#F1EFE8" stroke="#B4B2A9" stroke-width="0.5"/>
  <text font-weight="500" font-size="14" x="340" y="736" text-anchor="middle" fill="#2C2C2A" style="white-space: pre;">Acoustic piano · 30 solenoid-actuated keys</text>
  <text font-size="12" x="340" y="753" text-anchor="middle" fill="#5F5E5A" style="white-space: pre;">two independent 15-key spans on linear rails</text>
  <line x1="105" y1="692" x2="180" y2="720" stroke="#888780" stroke-width="1.2" marker-end="url(#arrow)"/>
  <line x1="157" y1="620" x2="157" y2="720" stroke="#888780" stroke-width="1.2" marker-end="url(#arrow)"/>
  <line x1="522" y1="620" x2="522" y2="720" stroke="#888780" stroke-width="1.2" marker-end="url(#arrow)"/>
  <line x1="575" y1="692" x2="500" y2="720" stroke="#888780" stroke-width="1.2" marker-end="url(#arrow)"/>
  <rect x="195" y="782" width="12" height="12" rx="2" fill="#EEEDFE" stroke="#AFA9EC" stroke-width="0.5"/>
  <text font-size="12" x="212" y="791" dominant-baseline="central" fill="#5F5E5A" style="white-space: pre;">Python (host)</text>
  <rect x="310" y="782" width="12" height="12" rx="2" fill="#E1F5EE" stroke="#5DCAA5" stroke-width="0.5"/>
  <text font-size="12" x="327" y="791" dominant-baseline="central" fill="#5F5E5A" style="white-space: pre;">firmware / hardware</text>
  <rect x="456" y="782" width="12" height="12" rx="2" fill="#FAEEDA" stroke="#FAC775" stroke-width="0.5"/>
  <text font-size="12" x="473" y="791" dominant-baseline="central" fill="#5F5E5A" style="white-space: pre;">UI / visualization</text>
</svg>